# xmcd
#
# Track frame offsets:
#	150
#	13466
#	26235
#	39734
#	52667
#	67526
#	80383
#	92847
#	106049
#	119566
#	130767
#	149244
#	163800
#	177648
#	189134
#	203133
#	215801
#	228343
#	241148
#	255626
#	270921
#	283850
#	298828
#	313076
#	325578
#
# Disc length: 4517 seconds
#
# Revision: 1
# Processed by: cddbd v1.5.2PL0 Copyright (c) Steve Scherf et al.
# Submitted via: audiograbber 1.83.01
#
DISCID=7211a319
DTITLE=Diverse - Songs That Dylan Loved
DYEAR=2004
DGENRE=Blues
TTITLE0=I´m A Man Of Constant Sorrow - Stanley Brothers
TTITLE1=Fixin´To Die Blues - Bukka White
TTITLE2=The House  Of The Rising Sun - Josh White
TTITLE3=See That My Grave Is Kept Clean - Blind Lemon Jefferson
TTITLE4=Corinna, Corinna - Bo Carter
TTITLE5=Honey Won´t You Allow Me One More Chance - Henry Thomas
TTITLE6=I Ain´t Got No Home - Woody Guthrie
TTITLE7=Grand Coulee Dam - Woody Githrie
TTITLE8=I Forget More Than You´ll  Ever Know - Davis Sisters
TTITLE9=It Hurts Me Too - Tampa Red
TTITLE10=Frankie And Albert - Leadbelly
TTITLE11=Sittin´ On Top Of The World - Mississippi Sheiks
TTITLE12=Tomorrow Night - Lonnie Johnson
TTITLE13=Step It Up And Go - Brownie McGhee
TTITLE14=Broke Down Engine - Blind Willie Mc Tell
TTITLE15=Stack-O-Lee - Tennessee Ernie Ford
TTITLE16=My Blue Eyed Jane - Jimmie Rodgers
TTITLE17=I Can´t Get You Off My Mind - hank Williams
TTITLE18=Dixie - Riley Puckett And The Skillet Lickers
TTITLE19=Baby Please Don´t Go - Big Joe Williams
TTITLE20=Blues For Sale - Doc Pomus
TTITLE21=We Three - The Ink Spots
TTITLE22=Soon - Al Bowlly
TTITLE23=Darc As A Dungeon - Merle Travis
TTITLE24=That Lucky Old Sun - Frankie Laine
EXTD=
EXTT0=
EXTT1=
EXTT2=
EXTT3=
EXTT4=
EXTT5=
EXTT6=
EXTT7=
EXTT8=
EXTT9=
EXTT10=
EXTT11=
EXTT12=
EXTT13=
EXTT14=
EXTT15=
EXTT16=
EXTT17=
EXTT18=
EXTT19=
EXTT20=
EXTT21=
EXTT22=
EXTT23=
EXTT24=
PLAYORDER=
